<?xml version="1.0" encoding="UTF-8" standalone="no"?>
<!DOCTYPE svg PUBLIC "-//W3C//DTD SVG 1.1//EN" "http://www.w3.org/Graphics/SVG/1.1/DTD/svg11.dtd">
<!-- Created with Vectornator (http://vectornator.io/) -->
<svg height="100%" stroke-miterlimit="10" style="fill-rule:nonzero;clip-rule:evenodd;stroke-linecap:round;stroke-linejoin:round;" version="1.1" viewBox="0 0 250 31.47" width="100%" xml:space="preserve" xmlns="http://www.w3.org/2000/svg" xmlns:vectornator="http://vectornator.io" xmlns:xlink="http://www.w3.org/1999/xlink">
<defs/>
<clipPath id="ArtboardFrame">
<rect height="31.47" width="250" x="0" y="0"/>
</clipPath>
<g clip-path="url(#ArtboardFrame)" id="Layer-1" vectornator:layerName="Layer 1">
<path d="M42.4205 28.4383C41.8863 28.9803 41.7989 30.4122 42.2983 30.9188C42.9523 30.2553 43.1293 29.1573 42.4205 28.4383Z" fill="#ffffff" fill-rule="nonzero" opacity="1" stroke="none"/>
<path d="M213.936 26.3299C213.542 26.7301 213.679 26.8007 213.936 27.3221C214.469 26.9622 214.357 26.7561 213.936 26.3299Z" fill="#ffffff" fill-rule="nonzero" opacity="1" stroke="none"/>
<path d="M7.79481 0.0194259C7.79481 0.0194259 1.0606 26.2444-0.320337 31.4894C1.19007 31.4894 8.66064 31.4894 8.66064 31.4894L14.6226 9.26227C14.6226 9.26227 19.5124 9.19818 20.5913 9.19818C19.6419 12.9134 15.8443 27.7742 14.8949 31.4894C16.4053 31.4894 24.1914 31.4894 24.1914 31.4894L29.9825 9.24006C29.9825 9.24006 35.048 9.19818 36.1269 9.19818C35.1775 12.9134 31.3799 27.7742 30.4305 31.4894C31.9409 31.4894 39.7624 31.4894 39.7624 31.4894C39.7624 31.4894 46.3976 5.26443 47.7785 0.0194259C41.0896 0.0194259 34.4007 0.0194259 27.7118 0.0194259C14.3339 0.0194259 7.79481 0.0194259 7.79481 0.0194259ZM41.5643 31.4894C43.0747 31.4894 50.7086 31.4894 50.7086 31.4894L56.3539 9.04321C56.3539 9.04321 70.9956 9.19818 73.9301 9.19818C73.628 10.2909 72.4228 15.7544 72.4228 15.7544L57.7622 15.735L54.2517 24.9332C54.2517 24.9332 67.198 24.9332 69.7873 24.9332C69.4852 26.0259 68.2769 30.3967 67.9748 31.4894C69.5284 31.4894 77.1741 31.4894 77.1741 31.4894C77.1741 31.4894 83.9851 5.26443 85.3229 0.0194259C79.3676 0.0194259 49.8884 0.0194259 49.8884 0.0194259C49.8884 0.0194259 42.9021 26.2444 41.5643 31.4894ZM87.6648 0.115532C87.6648 0.115532 80.4896 26.2444 79.1086 31.4894L114.808 31.47L117.171 22.5729C117.171 22.5729 95.1621 22.5729 90.7603 22.5729C91.2782 20.4312 93.9106 9.63526 93.9969 9.46043C94.0832 9.28559 120.377 9.56224 120.377 9.56224L123.126 0.0194259L87.6648 0.115532ZM116.653 31.4894C118.207 31.4894 125.945 31.4894 125.945 31.4894L129.062 20.4249C129.062 20.4249 143.279 20.4749 146.171 20.4749C145.696 22.3107 145.221 24.1464 144.746 25.9822C144.272 27.8179 143.797 29.6537 143.322 31.4894C144.876 31.4894 152.58 31.4894 152.58 31.4894C152.58 31.4894 159.359 5.22072 160.74 0.0194259C159.186-0.0242824 151.608 0.0194259 151.608 0.0194259L148.644 11.2686L131.412 11.2962C131.412 11.2962 133.785 1.89888 134.26 0.0194259C132.706 0.0194259 124.933 0.0194259 124.933 0.0194259C124.933 0.0194259 118.034 26.2444 116.653 31.4894ZM163.26 31.4894C169.258 31.4894 198.742 31.4894 198.742 31.4894C198.742 31.4894 205.939 5.26443 207.277 0.0194259C201.322 0.0194259 171.637 0.0194259 171.637 0.0194259C171.637 0.0194259 164.641 26.2444 163.26 31.4894ZM209.278 0L201.063 31.4894L210.117 31.47C210.117 31.47 218.152 1.11213 218.411 0.0194259C216.901 0.0194259 209.278 0 209.278 0ZM220.415 0C220.415 0 213.578 26.2444 212.197 31.4894C217.764 31.4894 245.635 31.47 245.635 31.47C245.635 31.47 249.266 24.059 250 22.5729C245.598 22.5729 227.991 22.5729 223.59 22.5729C224.582 18.814 228.552 3.77834 229.545 0.0194259C228.034 0.0194259 220.415 0 220.415 0ZM196.116 9.09023L192.05 22.8461C192.05 22.8461 176.945 22.7874 174.054 22.7874C174.615 20.5583 177.666 9.45816 177.666 9.45816L196.116 9.09023Z" fill="#ffffff" fill-rule="nonzero" opacity="1" stroke="none" vectornator:layerName="Curve 2"/>
</g>
</svg>
